<svg width="1012" height="72" viewBox="0 0 1012 72" fill="none" xmlns="http://www.w3.org/2000/svg">
<path d="M18.3627 0.883806V71.5041H0V0.883806H18.3627Z" fill="white"/>
<path d="M70.6203 71.5041H52.2576V0.883806H70.6203V36.1939V71.5041Z" fill="white"/>
<path d="M141.432 27.2705C140.857 20.7458 136.443 16.4279 129.055 16.4279C119.46 16.4279 113.99 23.8162 113.99 36.1939C113.99 49.2433 119.556 55.9599 128.959 55.9599C135.963 55.9599 140.473 52.1219 141.432 45.981L159.951 46.1729C158.992 58.0709 148.533 71.8879 128.575 71.8879C109.481 71.8879 95.1838 59.2223 95.1838 36.1939C95.1838 13.0696 109.864 0.5 128.575 0.5C145.846 0.5 158.416 10.1911 159.951 27.2705H141.432Z" fill="white"/>
<path d="M250.913 36.1939C250.913 59.3182 236.137 71.8879 217.33 71.8879C198.332 71.8879 183.651 59.2223 183.651 36.1939C183.651 13.0696 198.332 0.5 217.33 0.5C236.137 0.5 250.913 13.0696 250.913 36.1939ZM232.107 36.1939C232.107 23.4324 226.829 16.4279 217.33 16.4279C207.735 16.4279 202.458 23.4324 202.458 36.1939C202.458 48.9555 207.735 55.9599 217.33 55.9599C226.829 55.9599 232.107 48.9555 232.107 36.1939Z" fill="white"/>
<path d="M275.189 70.9284V1.45951H293.42V56.1518H321.725V70.9284H275.189Z" fill="white"/>
<path d="M386.301 1.45951H404.531V46.0769C404.531 61.813 392.537 71.7919 374.69 71.7919C356.843 71.7919 344.945 61.813 344.945 46.0769V1.45951H363.176V44.4458C363.176 51.1624 367.974 55.9599 374.69 55.9599C381.503 55.9599 386.301 51.1624 386.301 44.4458V1.45951Z" fill="white"/>
<path d="M429.287 1.45951H452.027L468.531 41.8551H469.395L485.898 1.45951H508.639V70.9284H490.792V30.0531H490.216L474.384 70.4486H463.446L447.709 29.7652H447.134V70.9284H429.287V1.45951Z" fill="white"/>
<path d="M593.172 1.45951V70.9284H577.916L552.105 33.4114H551.625V70.9284H533.394V1.45951H548.938L574.365 38.7846H574.941V1.45951H593.172Z" fill="white"/>
<path d="M617.927 70.9284V1.45951H666.383V16.236H636.158V28.8057H663.312V43.5822H636.158V70.9284H617.927Z" fill="white"/>
<path d="M755.81 36.1939C755.81 59.3182 741.033 71.8879 722.227 71.8879C703.228 71.8879 688.548 59.2223 688.548 36.1939C688.548 13.0696 703.228 0.5 722.227 0.5C741.033 0.5 755.81 13.0696 755.81 36.1939ZM737.003 36.1939C737.003 23.4324 731.726 16.4279 722.227 16.4279C712.631 16.4279 707.354 23.4324 707.354 36.1939C707.354 48.9555 712.631 55.9599 722.227 55.9599C731.726 55.9599 737.003 48.9555 737.003 36.1939Z" fill="white"/>
<path d="M780.085 70.9284V1.45951H809.638C825.183 1.45951 835.353 10.2871 835.353 24.9676C835.353 34.5628 830.94 41.3753 823.455 44.9255L837.656 70.9284H817.794L805.512 47.8041H798.316V70.9284H780.085ZM798.316 33.5073H805.417C812.325 33.5073 816.259 31.0126 816.259 24.9676C816.259 18.8267 812.325 16.0441 805.417 16.0441H798.316V33.5073Z" fill="white"/>
<path d="M856.942 16.236V1.45951H916.816V16.236H895.899V70.9284H877.86V16.236H856.942Z" fill="white"/>
<path d="M959.742 0.883806V71.5041H941.38V0.883806H959.742Z" fill="white"/>
<path d="M1012 71.5041H993.637V0.883806H1012V71.5041Z" fill="white"/>
</svg>
