<svg width="165" height="13" viewBox="0 0 165 13" fill="none" xmlns="http://www.w3.org/2000/svg">
<path d="M2.99023 0.75V12.25H0V0.75H2.99023Z" fill="black"/>
<path d="M11.5 12.25H8.50977V0.75H11.5V12.25Z" fill="black"/>
<path d="M23.0312 5.04688C22.9375 3.98438 22.2188 3.28125 21.0156 3.28125C19.4531 3.28125 18.5625 4.48438 18.5625 6.5C18.5625 8.625 19.4688 9.71875 21 9.71875C22.1406 9.71875 22.875 9.09375 23.0312 8.09375L26.0469 8.125C25.8906 10.0625 24.1875 12.3125 20.9375 12.3125C17.8281 12.3125 15.5 10.25 15.5 6.5C15.5 2.73438 17.8906 0.6875 20.9375 0.6875C23.75 0.6875 25.7969 2.26563 26.0469 5.04688H23.0312Z" fill="black"/>
<path d="M40.8594 6.5C40.8594 10.2656 38.4531 12.3125 35.3906 12.3125C32.2969 12.3125 29.9062 10.25 29.9062 6.5C29.9062 2.73438 32.2969 0.6875 35.3906 0.6875C38.4531 0.6875 40.8594 2.73438 40.8594 6.5ZM37.7969 6.5C37.7969 4.42188 36.9375 3.28125 35.3906 3.28125C33.8281 3.28125 32.9688 4.42188 32.9688 6.5C32.9688 8.57813 33.8281 9.71875 35.3906 9.71875C36.9375 9.71875 37.7969 8.57813 37.7969 6.5Z" fill="black"/>
<path d="M44.8125 12.1562V0.84375H47.7812V9.75H52.3906V12.1562H44.8125Z" fill="black"/>
<path d="M62.9062 0.84375H65.875V8.10938C65.875 10.6719 63.9219 12.2969 61.0156 12.2969C58.1094 12.2969 56.1719 10.6719 56.1719 8.10938V0.84375H59.1406V7.84375C59.1406 8.9375 59.9219 9.71875 61.0156 9.71875C62.125 9.71875 62.9062 8.9375 62.9062 7.84375V0.84375Z" fill="black"/>
<path d="M69.9062 0.84375H73.6094L76.2969 7.42188H76.4375L79.125 0.84375H82.8281V12.1562H79.9219V5.5H79.8281L77.25 12.0781H75.4688L72.9062 5.45313H72.8125V12.1562H69.9062V0.84375Z" fill="black"/>
<path d="M96.5938 0.84375V12.1562H94.1094L89.9062 6.04688H89.8281V12.1562H86.8594V0.84375H89.3906L93.5312 6.92188H93.625V0.84375H96.5938Z" fill="black"/>
<path d="M100.625 12.1562V0.84375H108.516V3.25H103.594V5.29688H108.016V7.70312H103.594V12.1562H100.625Z" fill="black"/>
<path d="M123.078 6.5C123.078 10.2656 120.672 12.3125 117.609 12.3125C114.516 12.3125 112.125 10.25 112.125 6.5C112.125 2.73438 114.516 0.6875 117.609 0.6875C120.672 0.6875 123.078 2.73438 123.078 6.5ZM120.016 6.5C120.016 4.42188 119.156 3.28125 117.609 3.28125C116.047 3.28125 115.188 4.42188 115.188 6.5C115.188 8.57813 116.047 9.71875 117.609 9.71875C119.156 9.71875 120.016 8.57813 120.016 6.5Z" fill="black"/>
<path d="M127.031 12.1562V0.84375H131.844C134.375 0.84375 136.031 2.28125 136.031 4.67188C136.031 6.23438 135.312 7.34375 134.094 7.92188L136.406 12.1562H133.172L131.172 8.39062H130V12.1562H127.031ZM130 6.0625H131.156C132.281 6.0625 132.922 5.65625 132.922 4.67188C132.922 3.67188 132.281 3.21875 131.156 3.21875H130V6.0625Z" fill="black"/>
<path d="M139.547 3.25V0.84375H149.297V3.25H145.891V12.1562H142.953V3.25H139.547Z" fill="black"/>
<path d="M156.287 0.75V12.25H153.297V0.75H156.287Z" fill="black"/>
<path d="M164.797 12.25H161.807V0.75H164.797V12.25Z" fill="black"/>
</svg>
