<svg width="170" height="12" viewBox="0 0 170 12" fill="none" xmlns="http://www.w3.org/2000/svg">
<path d="M3.08464 0.0645161V11.9355H0V0.0645161H3.08464Z" fill="white"/>
<path d="M11.8631 11.9355H8.77844V0.0645161H11.8631V11.9355Z" fill="white"/>
<path d="M23.7584 4.5C23.6617 3.40323 22.9203 2.67742 21.6792 2.67742C20.0673 2.67742 19.1486 3.91936 19.1486 6C19.1486 8.19355 20.0834 9.32258 21.663 9.32258C22.8397 9.32258 23.5972 8.67742 23.7584 7.64516L26.8693 7.67742C26.7081 9.67742 24.9512 12 21.5986 12C18.391 12 15.9894 9.87097 15.9894 6C15.9894 2.1129 18.4555 0 21.5986 0C24.4999 0 26.6114 1.62903 26.8693 4.5H23.7584Z" fill="white"/>
<path d="M42.1494 6C42.1494 9.8871 39.6672 12 36.508 12C33.3166 12 30.8505 9.87097 30.8505 6C30.8505 2.1129 33.3166 0 36.508 0C39.6672 0 42.1494 2.1129 42.1494 6ZM38.9902 6C38.9902 3.85484 38.1037 2.67742 36.508 2.67742C34.8962 2.67742 34.0097 3.85484 34.0097 6C34.0097 8.14516 34.8962 9.32258 36.508 9.32258C38.1037 9.32258 38.9902 8.14516 38.9902 6Z" fill="white"/>
<path d="M46.2274 11.8387V0.16129H49.2898V9.35484H54.0448V11.8387H46.2274Z" fill="white"/>
<path d="M64.8924 0.16129H67.9549V7.66129C67.9549 10.3065 65.9401 11.9839 62.9421 11.9839C59.9441 11.9839 57.9454 10.3065 57.9454 7.66129V0.16129H61.0079V7.3871C61.0079 8.51613 61.8138 9.32258 62.9421 9.32258C64.0865 9.32258 64.8924 8.51613 64.8924 7.3871V0.16129Z" fill="white"/>
<path d="M72.1134 0.16129H75.9334L78.7058 6.95161H78.8509L81.6232 0.16129H85.4433V11.8387H82.4452V4.96774H82.3485L79.689 11.7581H77.8515L75.2081 4.91936H75.1114V11.8387H72.1134V0.16129Z" fill="white"/>
<path d="M99.6435 0.16129V11.8387H97.0807L92.7449 5.53226H92.6643V11.8387H89.6018V0.16129H92.2129L96.4843 6.43548H96.581V0.16129H99.6435Z" fill="white"/>
<path d="M103.802 11.8387V0.16129H111.942V2.64516H106.865V4.75806H111.426V7.24194H106.865V11.8387H103.802Z" fill="white"/>
<path d="M126.964 6C126.964 9.8871 124.482 12 121.323 12C118.131 12 115.665 9.87097 115.665 6C115.665 2.1129 118.131 0 121.323 0C124.482 0 126.964 2.1129 126.964 6ZM123.805 6C123.805 3.85484 122.918 2.67742 121.323 2.67742C119.711 2.67742 118.824 3.85484 118.824 6C118.824 8.14516 119.711 9.32258 121.323 9.32258C122.918 9.32258 123.805 8.14516 123.805 6Z" fill="white"/>
<path d="M131.042 11.8387V0.16129H136.006C138.618 0.16129 140.326 1.64516 140.326 4.1129C140.326 5.72581 139.585 6.87097 138.327 7.46774L140.713 11.8387H137.377L135.313 7.95161H134.104V11.8387H131.042ZM134.104 5.54839H135.297C136.458 5.54839 137.119 5.12903 137.119 4.1129C137.119 3.08065 136.458 2.6129 135.297 2.6129H134.104V5.54839Z" fill="white"/>
<path d="M143.953 2.64516V0.16129H154.011V2.64516H150.497V11.8387H147.467V2.64516H143.953Z" fill="white"/>
<path d="M161.222 0.0645161V11.9355H158.137V0.0645161H161.222Z" fill="white"/>
<path d="M170 11.9355H166.915V0.0645161H170V11.9355Z" fill="white"/>
</svg>
